<?xml version="1.0" standalone="no"?>
<!DOCTYPE svg PUBLIC "-//W3C//DTD SVG 20010904//EN"
 "http://www.w3.org/TR/2001/REC-SVG-20010904/DTD/svg10.dtd">
<svg version="1.0" xmlns="http://www.w3.org/2000/svg"
 width="576.000000pt" height="576.000000pt" viewBox="0 0 576.000000 576.000000"
 preserveAspectRatio="xMidYMid meet">
<metadata>
Created by potrace 1.14, written by Peter Selinger 2001-2017
</metadata>
<g transform="translate(0.000000,576.000000) scale(0.100000,-0.100000)"
fill="#000000" stroke="none">
<path d="M1160 4976 c-139 -32 -238 -82 -332 -166 -233 -210 -358 -582 -358
-1060 0 -260 34 -431 136 -699 125 -327 153 -451 140 -621 -10 -118 -40 -252
-73 -318 -39 -76 -129 -164 -207 -201 -61 -29 -188 -61 -241 -61 -30 0 -42
-22 -28 -53 18 -39 192 -215 272 -275 101 -76 242 -156 348 -198 293 -115 692
-159 1077 -119 l147 16 72 -67 c257 -237 567 -354 937 -354 533 0 870 232
1025 705 57 173 80 340 97 678 9 194 9 279 0 385 -9 95 -9 154 -3 192 6 30 13
76 16 102 4 31 12 51 24 57 16 9 18 31 19 228 4 402 -37 637 -148 869 -161
335 -427 570 -786 695 -350 121 -870 111 -1256 -26 l-66 -24 -13 32 c-7 18
-47 66 -89 108 -81 82 -170 133 -285 165 -79 22 -347 28 -425 10z m1948 -1409
c210 -162 418 -304 510 -346 28 -14 52 -28 52 -32 0 -4 -35 -19 -79 -34 -91
-30 -115 -51 -109 -95 l5 -30 -73 0 -73 0 5 28 c8 39 -19 66 -91 90 -33 11
-104 37 -158 56 -115 42 -178 46 -269 15 -121 -40 -166 -80 -156 -134 3 -16
-17 -21 -162 -45 -91 -15 -167 -26 -168 -24 -2 1 15 12 38 24 89 45 188 116
259 184 79 76 237 261 311 363 25 34 46 63 48 63 2 0 51 -37 110 -83z m-93
-467 c13 -6 -7 -9 -62 -9 -45 -1 -90 -3 -100 -6 -10 -3 -4 1 12 9 33 16 118
20 150 6z m855 0 c0 -5 -17 -10 -37 -10 -28 0 -34 3 -23 10 20 13 60 13 60 0z
m-982 -87 c-86 -98 -54 -253 64 -314 96 -49 215 -7 272 96 15 26 16 27 10 5
-13 -49 -53 -115 -91 -152 -113 -110 -332 -85 -400 45 -38 74 -35 249 5 289
23 23 86 47 126 48 27 0 28 -1 14 -17z m207 -7 c48 -20 44 -33 -10 -38 -64 -5
-135 2 -135 13 0 13 58 38 88 39 12 0 38 -7 57 -14z m754 -3 c23 -16 23 -17 5
-24 -25 -10 -133 -10 -159 0 -18 7 -17 9 10 24 40 21 114 22 144 0z m-600
-107 l-2 -61 -7 55 c-4 30 -10 64 -15 75 -8 18 -7 19 8 6 13 -10 17 -28 16
-75z m847 48 c8 -20 13 -38 11 -40 -2 -2 -11 14 -20 36 -19 50 -12 53 9 4z
m-515 -10 c-5 -16 -10 -21 -10 -12 -1 18 10 51 15 45 2 -1 -1 -16 -5 -33z
m-940 -119 c20 -123 44 -179 97 -227 58 -52 130 -72 246 -66 169 9 248 69 341
261 30 63 63 118 72 121 28 11 57 -19 83 -85 58 -150 152 -251 264 -284 68
-21 189 -19 254 4 l52 18 0 -196 c0 -392 -37 -678 -112 -871 -138 -355 -369
-523 -770 -559 -251 -23 -495 23 -721 135 -56 28 -237 161 -237 174 0 4 9 10
20 13 42 11 22 44 -62 104 -169 118 -282 264 -394 508 -49 107 -66 125 -122
125 -131 0 -265 93 -323 226 -17 37 -22 69 -23 134 0 99 26 169 90 239 46 52
91 75 259 135 72 26 181 67 243 92 113 46 114 46 380 74 147 15 285 27 307 27
l39 -2 17 -100z m352 65 c10 -19 20 -25 47 -25 27 0 37 6 47 25 15 30 81 47
90 23 9 -24 -7 -82 -33 -113 -73 -86 -219 -47 -240 65 -9 52 -2 63 41 56 25
-4 40 -14 48 -31z m726 18 c7 -19 41 -48 56 -48 15 0 49 29 56 48 2 6 21 13
42 17 l37 7 0 -45 c0 -30 -7 -53 -21 -71 -83 -105 -249 -53 -249 80 l0 36 38
-7 c20 -4 39 -11 41 -17z m302 -167 c19 -78 19 -84 4 -101 -39 -43 -179 -64
-256 -39 -68 23 -132 87 -164 162 l-15 37 44 -44 c80 -80 194 -84 275 -10 35
31 44 46 66 109 7 19 8 19 17 -5 5 -14 18 -63 29 -109z"/>
<path d="M3370 2604 c-12 -14 -12 -23 3 -63 70 -183 100 -291 105 -363 6 -104
1 -110 -97 -106 -75 3 -76 3 -79 -23 -5 -39 20 -52 107 -57 l78 -4 36 35 c51
51 57 101 28 240 -12 59 -43 163 -69 230 -42 109 -50 122 -73 125 -15 2 -32
-4 -39 -14z"/>
<path d="M1535 2470 c-22 -25 -17 -85 17 -185 19 -57 28 -72 50 -79 41 -14 78
14 78 59 0 44 -34 170 -55 201 -19 30 -65 32 -90 4z"/>
<path d="M2894 1736 c-13 -34 3 -52 86 -93 100 -50 165 -68 299 -83 176 -19
325 11 405 81 50 44 64 73 46 94 -20 24 -49 17 -95 -23 -56 -50 -97 -62 -226
-69 -149 -8 -290 21 -419 87 -46 23 -88 26 -96 6z"/>
</g>
</svg>
